<?xml version="1.0" encoding="utf-8"?>
<!-- Generator: Adobe Illustrator 19.1.0, SVG Export Plug-In . SVG Version: 6.00 Build 0)  -->
<svg version="1.1" id="Lager_1" xmlns="http://www.w3.org/2000/svg" xmlns:xlink="http://www.w3.org/1999/xlink" x="0px" y="0px"
	 viewBox="-300 209.3 240 178" style="enable-background:new -300 209.3 240 178;" xml:space="preserve">
<style type="text/css">
	.st0{fill:#EFEFEF;}
	.st1{fill:#C0BFC4;}
	.st2{fill:#7F92A7;}
	.st3{fill:#D6E2EA;}
	.st4{fill:#F7E8AA;}
	.st5{fill:#FD9086;}
	.st6{fill:#FEFEFE;}
	.st7{fill:#C5DAED;}
	.st8{fill:#5F728B;}
	.st9{fill:#52667F;}
	.st10{fill:#778FAA;}
	.st11{fill:#FFFFFF;}
	.st12{fill:#9EBAD8;}
</style>
<rect x="-300" y="208.3" class="st0" width="240" height="178"/>
<path class="st1" d="M-114.7,366.3H-239c-2,0-3.6-1.6-3.6-3.6v-123h131.5v123C-111.1,364.7-112.7,366.3-114.7,366.3z"/>
<path class="st2" d="M-121,362.7h-124.3c-2,0-3.6-1.6-3.6-3.6V246.7h131.5v112.5C-117.4,361.1-119,362.7-121,362.7z"/>
<rect x="-249.9" y="230.3" class="st3" width="132.5" height="16.4"/>
<path class="st4" d="M-173.2,274h-25.2c-1,0-1.9-0.8-1.9-1.9v-4.7c0-1,0.8-1.9,1.9-1.9h25.2c1,0,1.9,0.8,1.9,1.9v4.7
	C-171.3,273.2-172.2,274-173.2,274z"/>
<path class="st5" d="M-182.5,284.5h-14.7c-1,0-1.9-0.8-1.9-1.9v-4.7c0-1,0.8-1.9,1.9-1.9h14.7c1,0,1.9,0.8,1.9,1.9v4.7
	C-180.6,283.7-181.4,284.5-182.5,284.5z"/>
<path class="st6" d="M-140,284.5h-29.5c-1,0-1.9-0.8-1.9-1.9v-4.7c0-1,0.8-1.9,1.9-1.9h29.5c1,0,1.9,0.8,1.9,1.9v4.7
	C-138.1,283.7-138.9,284.5-140,284.5z"/>
<path class="st7" d="M-158.5,297.8H-188c-1,0-1.9-0.8-1.9-1.9v-4.7c0-1,0.8-1.9,1.9-1.9h29.5c1,0,1.9,0.8,1.9,1.9v4.7
	C-156.6,296.9-157.4,297.8-158.5,297.8z"/>
<path class="st8" d="M-126.7,297.8h-21.7c-1,0-1.9-0.8-1.9-1.9v-4.7c0-1,0.8-1.9,1.9-1.9h21.7c1,0,1.9,0.8,1.9,1.9v4.7
	C-124.8,296.9-125.7,297.8-126.7,297.8z"/>
<path class="st5" d="M-174.3,309h-13.9c-1,0-1.9-0.8-1.9-1.9v-4.8c0-1,0.8-1.9,1.9-1.9h13.9c1,0,1.9,0.8,1.9,1.9v4.7
	C-172.4,308.1-173.2,309-174.3,309z"/>
<path class="st6" d="M-158.5,309h-8c-1,0-1.9-0.8-1.9-1.9v-4.8c0-1,0.8-1.9,1.9-1.9h8c1,0,1.9,0.8,1.9,1.9v4.7
	C-156.6,308.1-157.4,309-158.5,309z"/>
<path class="st7" d="M-135,309h-10c-1,0-1.9-0.8-1.9-1.9v-4.8c0-1,0.8-1.9,1.9-1.9h10c1,0,1.9,0.8,1.9,1.9v4.7
	C-133.1,308.1-134,309-135,309z"/>
<path class="st8" d="M-169,325.8h-29.5c-1,0-1.9-0.8-1.9-1.9v-4.7c0-1,0.8-1.9,1.9-1.9h29.5c1,0,1.9,0.8,1.9,1.9v4.7
	C-167.1,324.9-167.9,325.8-169,325.8z"/>
<path class="st7" d="M-130,325.8h-29.5c-1,0-1.9-0.8-1.9-1.9v-4.7c0-1,0.8-1.9,1.9-1.9h29.5c1,0,1.9,0.8,1.9,1.9v4.7
	C-128.1,324.9-128.9,325.8-130,325.8z"/>
<path class="st9" d="M-209.8,362.9h-36.6c-1.9,0-3.5-1.6-3.5-3.5V246.7h44.8v111.5C-205.1,360.8-207.2,362.9-209.8,362.9z"/>
<path class="st10" d="M-216.2,274h-25.2c-1,0-1.9-0.8-1.9-1.9v-4.7c0-1,0.8-1.9,1.9-1.9h25.2c1,0,1.9,0.8,1.9,1.9v4.7
	C-214.3,273.2-215.2,274-216.2,274z"/>
<path class="st10" d="M-226.7,290.5h-14.7c-1,0-1.9-0.8-1.9-1.9v-4.7c0-1,0.8-1.9,1.9-1.9h14.7c1,0,1.9,0.8,1.9,1.9v4.7
	C-224.8,289.7-225.7,290.5-226.7,290.5z"/>
<path class="st10" d="M-219.7,307.3h-21.7c-1,0-1.9-0.8-1.9-1.9v-4.7c0-1,0.8-1.9,1.9-1.9h21.7c1,0,1.9,0.8,1.9,1.9v4.7
	C-217.8,306.4-218.7,307.3-219.7,307.3z"/>
<path class="st10" d="M-223.7,324.4h-17.7c-1,0-1.9-0.8-1.9-1.9v-4.7c0-1,0.8-1.9,1.9-1.9h17.7c1,0,1.9,0.8,1.9,1.9v4.7
	C-221.9,323.6-222.7,324.4-223.7,324.4z"/>
<rect x="-225.9" y="234.8" class="st11" width="99.7" height="7.3"/>
<circle class="st12" cx="-232.6" cy="238.5" r="2.3"/>
<circle class="st12" cx="-238.8" cy="238.5" r="2.3"/>
<circle class="st12" cx="-244.6" cy="238.5" r="2.3"/>
</svg>
